<svg xmlns="http://www.w3.org/2000/svg" width="34.495" height="34.495" viewBox="0 0 34.495 34.495">
  <path id="icons8-instagram-logo" d="M12.582,3A9.593,9.593,0,0,0,3,12.582V27.913A9.593,9.593,0,0,0,12.582,37.5H27.913A9.593,9.593,0,0,0,37.5,27.913V12.582A9.593,9.593,0,0,0,27.913,3Zm0,3.833H27.913a5.756,5.756,0,0,1,5.749,5.749V27.913a5.756,5.756,0,0,1-5.749,5.749H12.582a5.756,5.756,0,0,1-5.749-5.749V12.582A5.756,5.756,0,0,1,12.582,6.833ZM29.83,8.749a1.916,1.916,0,1,0,1.916,1.916A1.916,1.916,0,0,0,29.83,8.749Zm-9.582,1.916a9.582,9.582,0,1,0,9.582,9.582A9.593,9.593,0,0,0,20.248,10.666Zm0,3.833A5.749,5.749,0,1,1,14.5,20.248,5.756,5.756,0,0,1,20.248,14.5Z" transform="translate(-3 -3)" fill="#fff"/>
</svg>
