<svg xmlns="http://www.w3.org/2000/svg" width="34.495" height="28.031" viewBox="0 0 34.495 28.031">
  <path id="icons8-twitter" d="M36.494,7.754a14.127,14.127,0,0,1-4.065,1.114A7.089,7.089,0,0,0,35.54,4.953a14.19,14.19,0,0,1-4.495,1.718A7.079,7.079,0,0,0,18.8,11.513a7.156,7.156,0,0,0,.183,1.612A20.09,20.09,0,0,1,4.4,5.73a7.09,7.09,0,0,0,2.19,9.449,7.062,7.062,0,0,1-3.205-.885v.089a7.078,7.078,0,0,0,5.677,6.939,7.08,7.08,0,0,1-1.865.248,7.206,7.206,0,0,1-1.331-.126,7.085,7.085,0,0,0,6.611,4.915A14.28,14.28,0,0,1,2,29.289a20.035,20.035,0,0,0,10.848,3.179c13.017,0,20.134-10.783,20.134-20.135q0-.46-.02-.915A14.4,14.4,0,0,0,36.494,7.754Z" transform="translate(-1.999 -4.436)" fill="#fff"/>
</svg>
